ISO-10303-21;
HEADER;

/******************************************************************************************
* STEP Physical File produced by: The EXPRESS Data Manager Version 5.02.0100.07 : 28 Aug 2013
* Module:                         EDMstepFileFactory/EDMstandAlone
* Creation date:                  Thu Mar 28 02:47:43 2024
* Host:                           DESKTOP-QVM3POU
* Database:                       C:\Users\Dino\AppData\Local\Temp\5bfac33c-fdab-483f-8d43-8e55f2f304db\6d8eb75e-bdba-4a26-ac6e-39f3e3ab8f3d\ifc
* Database version:               5507
* Database creation date:         Thu Mar 28 02:47:43 2024
* Schema:                         IFC4
* Model:                          DataRepository.ifc
* Model creation date:            Thu Mar 28 02:47:43 2024
* Header model:                   DataRepository.ifc_HeaderModel
* Header model creation date:     Thu Mar 28 02:47:43 2024
* EDMuser:                        sdai-user
* EDMgroup:                       sdai-group
* License ID and type:            5605 : Permanent license. Expiry date: 
* EDMstepFileFactory options:     020000
******************************************************************************************/
FILE_DESCRIPTION(('ViewDefinition [DesignTransferView_V1.0]'),'2;1');
FILE_NAME('\X2\987976EE7F1653F7\X0\','2024-03-28T02:47:43',(''),(''),'The EXPRESS Data Manager Version 5.02.0100.07 : 28 Aug 2013','20190327_2315(x64) - Exporter 20.0.0.377 - Alternate UI 20.0.0.377','');
FILE_SCHEMA(('IFC4'));
ENDSEC;

DATA;
#1= IFCORGANIZATION($,'Autodesk Revit 2020 (ENU)',$,$,$);
#5= IFCAPPLICATION(#1,'2020','Autodesk Revit 2020 (ENU)','Revit');
#6= IFCCARTESIANPOINT((0.,0.,0.));
#10= IFCCARTESIANPOINT((0.,0.));
#12= IFCDIRECTION((1.,0.,0.));
#14= IFCDIRECTION((-1.,0.,0.));
#16= IFCDIRECTION((0.,1.,0.));
#18= IFCDIRECTION((0.,-1.,0.));
#20= IFCDIRECTION((0.,0.,1.));
#22= IFCDIRECTION((0.,0.,-1.));
#24= IFCDIRECTION((1.,0.));
#26= IFCDIRECTION((-1.,0.));
#28= IFCDIRECTION((0.,1.));
#30= IFCDIRECTION((0.,-1.));
#32= IFCAXIS2PLACEMENT3D(#6,$,$);
#33= IFCLOCALPLACEMENT(#1441,#32);
#36= IFCPERSON($,'','Dino',$,$,$,$,$);
#38= IFCORGANIZATION($,'','',$,$);
#39= IFCPERSONANDORGANIZATION(#36,#38,$);
#42= IFCOWNERHISTORY(#39,#5,$,.NOCHANGE.,$,$,$,1711563801);
#43= IFCSIUNIT(*,.LENGTHUNIT.,.MILLI.,.METRE.);
#44= IFCSIUNIT(*,.LENGTHUNIT.,$,.METRE.);
#45= IFCSIUNIT(*,.AREAUNIT.,$,.SQUARE_METRE.);
#46= IFCSIUNIT(*,.VOLUMEUNIT.,$,.CUBIC_METRE.);
#47= IFCSIUNIT(*,.PLANEANGLEUNIT.,$,.RADIAN.);
#48= IFCDIMENSIONALEXPONENTS(0,0,0,0,0,0,0);
#49= IFCMEASUREWITHUNIT(IFCRATIOMEASURE(0.0174532925199433),#47);
#50= IFCCONVERSIONBASEDUNIT(#48,.PLANEANGLEUNIT.,'DEGREE',#49);
#52= IFCSIUNIT(*,.MASSUNIT.,.KILO.,.GRAM.);
#53= IFCDERIVEDUNITELEMENT(#52,1);
#54= IFCDERIVEDUNITELEMENT(#44,-3);
#55= IFCDERIVEDUNIT((#53,#54),.MASSDENSITYUNIT.,$);
#57= IFCSIUNIT(*,.TIMEUNIT.,$,.SECOND.);
#58= IFCSIUNIT(*,.FREQUENCYUNIT.,$,.HERTZ.);
#59= IFCSIUNIT(*,.THERMODYNAMICTEMPERATUREUNIT.,$,.KELVIN.);
#60= IFCSIUNIT(*,.THERMODYNAMICTEMPERATUREUNIT.,$,.DEGREE_CELSIUS.);
#61= IFCDERIVEDUNITELEMENT(#52,1);
#62= IFCDERIVEDUNITELEMENT(#59,-1);
#63= IFCDERIVEDUNITELEMENT(#57,-3);
#64= IFCDERIVEDUNIT((#61,#62,#63),.THERMALTRANSMITTANCEUNIT.,$);
#66= IFCSIUNIT(*,.LENGTHUNIT.,.DECI.,.METRE.);
#67= IFCDERIVEDUNITELEMENT(#44,3);
#68= IFCDERIVEDUNITELEMENT(#57,-1);
#69= IFCDERIVEDUNIT((#67,#68),.VOLUMETRICFLOWRATEUNIT.,$);
#71= IFCSIUNIT(*,.ELECTRICCURRENTUNIT.,$,.AMPERE.);
#72= IFCSIUNIT(*,.ELECTRICVOLTAGEUNIT.,$,.VOLT.);
#73= IFCSIUNIT(*,.POWERUNIT.,$,.WATT.);
#74= IFCSIUNIT(*,.FORCEUNIT.,.KILO.,.NEWTON.);
#75= IFCSIUNIT(*,.ILLUMINANCEUNIT.,$,.LUX.);
#76= IFCSIUNIT(*,.LUMINOUSFLUXUNIT.,$,.LUMEN.);
#77= IFCSIUNIT(*,.LUMINOUSINTENSITYUNIT.,$,.CANDELA.);
#78= IFCDERIVEDUNITELEMENT(#52,-1);
#79= IFCDERIVEDUNITELEMENT(#44,-2);
#80= IFCDERIVEDUNITELEMENT(#57,3);
#81= IFCDERIVEDUNITELEMENT(#76,1);
#82= IFCDERIVEDUNIT((#78,#79,#80,#81),.USERDEFINED.,'Luminous Efficacy');
#84= IFCDERIVEDUNITELEMENT(#44,1);
#85= IFCDERIVEDUNITELEMENT(#57,-1);
#86= IFCDERIVEDUNIT((#84,#85),.LINEARVELOCITYUNIT.,$);
#88= IFCSIUNIT(*,.PRESSUREUNIT.,$,.PASCAL.);
#89= IFCDERIVEDUNITELEMENT(#44,-2);
#90= IFCDERIVEDUNITELEMENT(#52,1);
#91= IFCDERIVEDUNITELEMENT(#57,-2);
#92= IFCDERIVEDUNIT((#89,#90,#91),.USERDEFINED.,'Friction Loss');
#94= IFCUNITASSIGNMENT((#43,#45,#46,#50,#52,#55,#57,#58,#60,#64,#69,#71,#72,#73,#74,#75,#76,#77,#82,#86,#88,#92));
#96= IFCAXIS2PLACEMENT3D(#6,$,$);
#97= IFCDIRECTION((6.12303176911189E-17,1.));
#99= IFCGEOMETRICREPRESENTATIONCONTEXT($,'Model',3,0.01,#96,#97);
#103= IFCGEOMETRICREPRESENTATIONSUBCONTEXT('Axis','Model',*,*,*,*,#99,$,.GRAPH_VIEW.,$);
#105= IFCGEOMETRICREPRESENTATIONSUBCONTEXT('Body','Model',*,*,*,*,#99,$,.MODEL_VIEW.,$);
#106= IFCGEOMETRICREPRESENTATIONSUBCONTEXT('Box','Model',*,*,*,*,#99,$,.MODEL_VIEW.,$);
#107= IFCGEOMETRICREPRESENTATIONSUBCONTEXT('FootPrint','Model',*,*,*,*,#99,$,.MODEL_VIEW.,$);
#108= IFCPROJECT('0wAXF_DFbFHRYsPWD44M9l',#42,'\X2\987976EE7F1653F7\X0\',$,$,'\X2\987976EE540D79F0\X0\','\X2\987976EE72B66001\X0\',(#99),#94);
#119= IFCPOSTALADDRESS($,$,$,$,('\X2\8BF757286B6459048F93516557305740\X0\'),$,'','','','\X2\53174EACFF0C4E2D56FD\X0\');
#123= IFCBUILDING('0wAXF_DFbFHRYsPWD44M9k',#42,'',$,$,#33,$,'',.ELEMENT.,$,$,$);
#133= IFCAXIS2PLACEMENT3D(#6,$,$);
#134= IFCLOCALPLACEMENT(#33,#133);
#136= IFCBUILDINGSTOREY('0wAXF_DFbFHRYsPWExvEHI',#42,'BASE',$,'Level:\X2\4E0A68075934\X0\',#134,$,'BASE',.ELEMENT.,0.);
#141= IFCAXIS2PLACEMENT3D(#6,$,$);
#142= IFCLOCALPLACEMENT(#134,#141);
#143= IFCCARTESIANPOINT((0.,0.));
#145= IFCAXIS2PLACEMENT2D(#143,#24);
#146= IFCRECTANGLEPROFILEDEF(.AREA.,$,#145,2499.99972839356,2500.00030975342);
#149= IFCCARTESIANPOINT((6000.0003364563,18000.000718689,2500.));
#151= IFCAXIS2PLACEMENT3D(#149,#22,#16);
#152= IFCEXTRUDEDAREASOLID(#146,#151,#20,2500.);
#153= IFCCARTESIANPOINT((4750.00018157959,16750.0008544922));
#155= IFCCARTESIANPOINT((4750.00018157959,19250.0005828857));
#157= IFCCARTESIANPOINT((7250.00049133301,19250.0005828857));
#159= IFCCARTESIANPOINT((7250.00049133301,16750.0008544922));
#161= IFCPOLYLINE((#153,#155,#157,#159,#153));
#163= IFCCOLOURRGB($,0.752941176470588,0.752941176470588,0.752941176470588);
#164= IFCSURFACESTYLERENDERING(#163,0.,$,$,$,$,IFCNORMALISEDRATIOMEASURE(0.5),IFCSPECULAREXPONENT(128.),.NOTDEFINED.);
#165= IFCSURFACESTYLE('\X2\6DF751DD571FFF0C73B0573A6D476CE870708272\X0\',.BOTH.,(#164));
#167= IFCPRESENTATIONSTYLEASSIGNMENT((#165));
#169= IFCSTYLEDITEM(#152,(#167),$);
#172= IFCSHAPEREPRESENTATION(#105,'Body','SweptSolid',(#152));
#179= IFCSHAPEREPRESENTATION(#107,'FootPrint','Curve2D',(#161));
#182= IFCPRODUCTDEFINITIONSHAPE($,$,(#172,#179));
#188= IFCSLAB('0IYVHn5OT1c9eU5zMF5UnB',#42,'Foundation Slab:F2500:739215',$,'Foundation Slab:F2500',#142,#182,'739215',.BASESLAB.);
#203= IFCSLABTYPE('0IOQCuZDTEuRo5qliUB$NY',#42,'Foundation Slab:F2500',$,$,(#274,#277,#281),$,'77945',$,.BASESLAB.);
#206= IFCMATERIAL('\X2\6DF751DD571FFF0C73B0573A6D476CE870708272\X0\',$,'Materials');
#213= IFCPRESENTATIONSTYLEASSIGNMENT((#165));
#215= IFCSTYLEDITEM($,(#213),$);
#217= IFCSTYLEDREPRESENTATION(#99,'Style','Material',(#215));
#220= IFCMATERIALDEFINITIONREPRESENTATION($,$,(#217),#206);
#224= IFCMATERIALLAYER(#206,2500.,$,'\X2\6DF751DD571FFF0C73B0573A6D476CE870708272\X0\',$,'Materials',$);
#226= IFCMATERIALLAYERSET((#224),'Foundation Slab:F2500',$);
#229= IFCMATERIALLAYERSETUSAGE(#226,.AXIS3.,.POSITIVE.,0.,$);
#231= IFCPROPERTYSINGLEVALUE('Reference',$,IFCIDENTIFIER('F2500'),$);
#239= IFCPROPERTYSET('0MxWX6taHDF8pNqUeOtfJo',#42,'Pset_EnvironmentalImpactIndicators',$,(#231));
#247= IFCPROPERTYSINGLEVALUE('Reference',$,IFCLABEL('F2500'),$);
#248= IFCPROPERTYSET('19BErfDzvDtuCSinZ4Ecz4',#42,'Pset_ReinforcementBarPitchOfSlab',$,(#247));
#251= IFCPROPERTYSINGLEVALUE('PitchAngle',$,IFCPLANEANGLEMEASURE(0.),$);
#252= IFCPROPERTYSINGLEVALUE('IsExternal',$,IFCBOOLEAN(.F.),$);
#253= IFCPROPERTYSINGLEVALUE('ThermalTransmittance',$,IFCTHERMALTRANSMITTANCEMEASURE(0.4184),$);
#254= IFCPROPERTYSINGLEVALUE('LoadBearing',$,IFCBOOLEAN(.T.),$);
#255= IFCPROPERTYSET('0IYVHn5OT1c9eU72wF5UnB',#42,'Pset_SlabCommon',$,(#231,#251,#252,#253,#254));
#261= IFCRELDEFINESBYPROPERTIES('0HNj4Ps2TA$Ae9jBWkOrKn',#42,$,$,(#188),#239);
#265= IFCRELDEFINESBYPROPERTIES('17BBSInar3d9fFG2EeLmVO',#42,$,$,(#188),#248);
#268= IFCRELDEFINESBYPROPERTIES('0Qc1lMdAv08wx_fdoK5Txb',#42,$,$,(#188),#255);
#271= IFCCLASSIFICATION('http://www.csiorg.net/uniformat','1998',$,'Uniformat',$,$,$);
#274= IFCPROPERTYSET('2dtNgsNJv5P9lQidKthEvM',#42,'Pset_EnvironmentalImpactIndicators',$,(#231));
#276= IFCPROPERTYSINGLEVALUE('Reference',$,IFCLABEL('F2500'),$);
#277= IFCPROPERTYSET('25JnpIKPb3xR9UI3iHkNIi',#42,'Pset_ReinforcementBarPitchOfSlab',$,(#276));
#280= IFCPROPERTYSINGLEVALUE('ThermalTransmittance',$,IFCTHERMALTRANSMITTANCEMEASURE(0.4184),$);
#281= IFCPROPERTYSET('0IOQCuZDTEuRo5sG0UB$NY',#42,'Pset_SlabCommon',$,(#231,#252,#280));
#290= IFCAXIS2PLACEMENT3D(#6,$,$);
#291= IFCLOCALPLACEMENT(#134,#290);
#292= IFCCARTESIANPOINT((0.,0.));
#294= IFCAXIS2PLACEMENT2D(#292,#24);
#295= IFCRECTANGLEPROFILEDEF(.AREA.,$,#294,2499.99972839356,2500.00001907349);
#296= IFCCARTESIANPOINT((0.,18000.000718689,2500.));
#298= IFCAXIS2PLACEMENT3D(#296,#22,#16);
#299= IFCEXTRUDEDAREASOLID(#295,#298,#20,2500.);
#300= IFCCARTESIANPOINT((-1250.00000953674,16750.0008544922));
#302= IFCCARTESIANPOINT((-1250.00000953674,19250.0005828857));
#304= IFCCARTESIANPOINT((1250.00000953674,19250.0005828857));
#306= IFCCARTESIANPOINT((1250.00000953674,16750.0008544922));
#308= IFCPOLYLINE((#300,#302,#304,#306,#300));
#310= IFCSTYLEDITEM(#299,(#167),$);
#313= IFCSHAPEREPRESENTATION(#105,'Body','SweptSolid',(#299));
#315= IFCSHAPEREPRESENTATION(#107,'FootPrint','Curve2D',(#308));
#317= IFCPRODUCTDEFINITIONSHAPE($,$,(#313,#315));
#321= IFCSLAB('0IYVHn5OT1c9eU5zMF5UnJ',#42,'Foundation Slab:F2500:739223',$,'Foundation Slab:F2500',#291,#317,'739223',.BASESLAB.);
#324= IFCSLABTYPE('0ai9G3h9nD1AeeM4jCjT2F',#42,'Foundation Slab:F2500',$,$,(#346,#349,#353),$,'77945',$,.BASESLAB.);
#325= IFCMATERIALLAYERSETUSAGE(#226,.AXIS3.,.POSITIVE.,0.,$);
#326= IFCPROPERTYSET('3ntgLViYTEAvq51c_6DSv$',#42,'Pset_EnvironmentalImpactIndicators',$,(#231));
#328= IFCPROPERTYSINGLEVALUE('Reference',$,IFCLABEL('F2500'),$);
#329= IFCPROPERTYSET('2gbpvtP6L1cPoQzK_8D_fi',#42,'Pset_ReinforcementBarPitchOfSlab',$,(#328));
#332= IFCPROPERTYSINGLEVALUE('ThermalTransmittance',$,IFCTHERMALTRANSMITTANCEMEASURE(0.4184),$);
#333= IFCPROPERTYSET('0IYVHn5OT1c9eU72wF5UnJ',#42,'Pset_SlabCommon',$,(#231,#251,#252,#254,#332));
#336= IFCRELDEFINESBYPROPERTIES('0ybE1KBjD8hwb2fOO7Nz5G',#42,$,$,(#321),#326);
#340= IFCRELDEFINESBYPROPERTIES('0tXZ_YF$T1_wTCWrL0BqmR',#42,$,$,(#321),#329);
#343= IFCRELDEFINESBYPROPERTIES('0940Zt9rP3tAy_V1AuBsSJ',#42,$,$,(#321),#333);
#346= IFCPROPERTYSET('1auliCAbfF$fUwRt7jzvjJ',#42,'Pset_EnvironmentalImpactIndicators',$,(#231));
#348= IFCPROPERTYSINGLEVALUE('Reference',$,IFCLABEL('F2500'),$);
#349= IFCPROPERTYSET('2Ai0O03Q13EvUittBGhXQX',#42,'Pset_ReinforcementBarPitchOfSlab',$,(#348));
#352= IFCPROPERTYSINGLEVALUE('ThermalTransmittance',$,IFCTHERMALTRANSMITTANCEMEASURE(0.4184),$);
#353= IFCPROPERTYSET('0TetDMvEH5VR8DUx7lTKIn',#42,'Pset_SlabCommon',$,(#231,#252,#352));
#362= IFCAXIS2PLACEMENT3D(#6,$,$);
#363= IFCLOCALPLACEMENT(#134,#362);
#364= IFCCARTESIANPOINT((0.,0.));
#366= IFCAXIS2PLACEMENT2D(#364,#24);
#367= IFCRECTANGLEPROFILEDEF(.AREA.,$,#366,2499.99972839356,2500.00089111328);
#368= IFCCARTESIANPOINT((30000.0013916016,18000.000718689,2500.));
#370= IFCAXIS2PLACEMENT3D(#368,#22,#16);
#371= IFCEXTRUDEDAREASOLID(#367,#370,#20,2500.);
#372= IFCCARTESIANPOINT((28750.0009460449,16750.0008544922));
#374= IFCCARTESIANPOINT((28750.0009460449,19250.0005828857));
#376= IFCCARTESIANPOINT((31250.0018371582,19250.0005828857));
#378= IFCCARTESIANPOINT((31250.0018371582,16750.0008544922));
#380= IFCPOLYLINE((#372,#374,#376,#378,#372));
#382= IFCSTYLEDITEM(#371,(#167),$);
#385= IFCSHAPEREPRESENTATION(#105,'Body','SweptSolid',(#371));
#387= IFCSHAPEREPRESENTATION(#107,'FootPrint','Curve2D',(#380));
#389= IFCPRODUCTDEFINITIONSHAPE($,$,(#385,#387));
#393= IFCSLAB('0IYVHn5OT1c9eU5zMF5UnR',#42,'Foundation Slab:F2500:739231',$,'Foundation Slab:F2500',#363,#389,'739231',.BASESLAB.);
#396= IFCSLABTYPE('0WFo$awxz19PtwbK7BCPLs',#42,'Foundation Slab:F2500',$,$,(#418,#421,#425),$,'77945',$,.BASESLAB.);
#397= IFCMATERIALLAYERSETUSAGE(#226,.AXIS3.,.POSITIVE.,0.,$);
#398= IFCPROPERTYSET('07DH9Pq_z6HQxu9627q4jl',#42,'Pset_EnvironmentalImpactIndicators',$,(#231));
#400= IFCPROPERTYSINGLEVALUE('Reference',$,IFCLABEL('F2500'),$);
#401= IFCPROPERTYSET('0ZBGkFd5L4HQ0blcNK$7Jw',#42,'Pset_ReinforcementBarPitchOfSlab',$,(#400));
#404= IFCPROPERTYSINGLEVALUE('ThermalTransmittance',$,IFCTHERMALTRANSMITTANCEMEASURE(0.4184),$);
#405= IFCPROPERTYSET('0IYVHn5OT1c9eU72wF5UnR',#42,'Pset_SlabCommon',$,(#231,#251,#252,#254,#404));
#408= IFCRELDEFINESBYPROPERTIES('0vRYFKpIf4n9C9ZIcY8aCy',#42,$,$,(#393),#398);
#412= IFCRELDEFINESBYPROPERTIES('0JApXf7tL16Anz3KsnaNbD',#42,$,$,(#393),#401);
#415= IFCRELDEFINESBYPROPERTIES('1FluCTB1XBjhIu3T3iUv9K',#42,$,$,(#393),#405);
#418= IFCPROPERTYSET('0lgY9HA5f5RBEy59twnwKI',#42,'Pset_EnvironmentalImpactIndicators',$,(#231));
#420= IFCPROPERTYSINGLEVALUE('Reference',$,IFCLABEL('F2500'),$);
#421= IFCPROPERTYSET('0MYwBMQ2z1XAtLLC6kMbsQ',#42,'Pset_ReinforcementBarPitchOfSlab',$,(#420));
#424= IFCPROPERTYSINGLEVALUE('ThermalTransmittance',$,IFCTHERMALTRANSMITTANCEMEASURE(0.4184),$);
#425= IFCPROPERTYSET('1rLVmbqsfBtAK9dqs7U9gX',#42,'Pset_SlabCommon',$,(#231,#252,#424));
#434= IFCAXIS2PLACEMENT3D(#6,$,$);
#435= IFCLOCALPLACEMENT(#134,#434);
#436= IFCCARTESIANPOINT((0.,0.));
#438= IFCAXIS2PLACEMENT2D(#436,#24);
#439= IFCRECTANGLEPROFILEDEF(.AREA.,$,#438,2499.99972839356,2499.99856567383);
#440= IFCCARTESIANPOINT((24000.0013458252,18000.000718689,2500.));
#442= IFCAXIS2PLACEMENT3D(#440,#22,#16);
#443= IFCEXTRUDEDAREASOLID(#439,#442,#20,2500.);
#444= IFCCARTESIANPOINT((22750.0020629883,16750.0008544922));
#446= IFCCARTESIANPOINT((22750.0020629883,19250.0005828857));
#448= IFCCARTESIANPOINT((25250.0006286621,19250.0005828857));
#450= IFCCARTESIANPOINT((25250.0006286621,16750.0008544922));
#452= IFCPOLYLINE((#444,#446,#448,#450,#444));
#454= IFCSTYLEDITEM(#443,(#167),$);
#457= IFCSHAPEREPRESENTATION(#105,'Body','SweptSolid',(#443));
#459= IFCSHAPEREPRESENTATION(#107,'FootPrint','Curve2D',(#452));
#461= IFCPRODUCTDEFINITIONSHAPE($,$,(#457,#459));
#465= IFCSLAB('0IYVHn5OT1c9eU5zMF5UnZ',#42,'Foundation Slab:F2500:739239',$,'Foundation Slab:F2500',#435,#461,'739239',.BASESLAB.);
#468= IFCSLABTYPE('0monyr6tn3HQE0zR7cN2mn',#42,'Foundation Slab:F2500',$,$,(#490,#493,#497),$,'77945',$,.BASESLAB.);
#469= IFCMATERIALLAYERSETUSAGE(#226,.AXIS3.,.POSITIVE.,0.,$);
#470= IFCPROPERTYSET('1cmGgDXMf9AfpXq1WzqJ2R',#42,'Pset_EnvironmentalImpactIndicators',$,(#231));
#472= IFCPROPERTYSINGLEVALUE('Reference',$,IFCLABEL('F2500'),$);
#473= IFCPROPERTYSET('0QdDNtQEfFOuKQGkAR14hm',#42,'Pset_ReinforcementBarPitchOfSlab',$,(#472));
#476= IFCPROPERTYSINGLEVALUE('ThermalTransmittance',$,IFCTHERMALTRANSMITTANCEMEASURE(0.4184),$);
#477= IFCPROPERTYSET('0IYVHn5OT1c9eU72wF5UnZ',#42,'Pset_SlabCommon',$,(#231,#251,#252,#254,#476));
#480= IFCRELDEFINESBYPROPERTIES('0HETknC353dPHHmitva5v0',#42,$,$,(#465),#470);
#484= IFCRELDEFINESBYPROPERTIES('0oI$SqMCrCbBiCw4YhbyWF',#42,$,$,(#465),#473);
#487= IFCRELDEFINESBYPROPERTIES('20zNfhsTbEufCXncZrOnPR',#42,$,$,(#465),#477);
#490= IFCPROPERTYSET('3J3W8kD4v2lOqi2VfDxf0C',#42,'Pset_EnvironmentalImpactIndicators',$,(#231));
#492= IFCPROPERTYSINGLEVALUE('Reference',$,IFCLABEL('F2500'),$);
#493= IFCPROPERTYSET('1hmRFWHsr7Dwk6n5fAclNH',#42,'Pset_ReinforcementBarPitchOfSlab',$,(#492));
#496= IFCPROPERTYSINGLEVALUE('ThermalTransmittance',$,IFCTHERMALTRANSMITTANCEMEASURE(0.4184),$);
#497= IFCPROPERTYSET('0044Qqztj8wOSk30GeI6FC',#42,'Pset_SlabCommon',$,(#231,#252,#496));
#506= IFCAXIS2PLACEMENT3D(#6,$,$);
#507= IFCLOCALPLACEMENT(#134,#506);
#508= IFCCARTESIANPOINT((0.,0.));
#510= IFCAXIS2PLACEMENT2D(#508,#24);
#511= IFCRECTANGLEPROFILEDEF(.AREA.,$,#510,2499.99972839356,2499.99972839356);
#512= IFCCARTESIANPOINT((18000.000718689,18000.000718689,2500.));
#514= IFCAXIS2PLACEMENT3D(#512,#22,#16);
#515= IFCEXTRUDEDAREASOLID(#511,#514,#20,2500.);
#516= IFCCARTESIANPOINT((16750.0008544922,16750.0008544922));
#518= IFCCARTESIANPOINT((16750.0008544922,19250.0005828857));
#520= IFCCARTESIANPOINT((19250.0005828857,19250.0005828857));
#522= IFCCARTESIANPOINT((19250.0005828857,16750.0008544922));
#524= IFCPOLYLINE((#516,#518,#520,#522,#516));
#526= IFCSTYLEDITEM(#515,(#167),$);
#529= IFCSHAPEREPRESENTATION(#105,'Body','SweptSolid',(#515));
#531= IFCSHAPEREPRESENTATION(#107,'FootPrint','Curve2D',(#524));
#533= IFCPRODUCTDEFINITIONSHAPE($,$,(#529,#531));
#537= IFCSLAB('0IYVHn5OT1c9eU5zMF5Unh',#42,'Foundation Slab:F2500:739247',$,'Foundation Slab:F2500',#507,#533,'739247',.BASESLAB.);
#540= IFCSLABTYPE('2lmDvUinH6HvAdIOnTNqWI',#42,'Foundation Slab:F2500',$,$,(#562,#565,#569),$,'77945',$,.BASESLAB.);
#541= IFCMATERIALLAYERSETUSAGE(#226,.AXIS3.,.POSITIVE.,0.,$);
#542= IFCPROPERTYSET('2b4x7xe4D9nA1nycnYbn4x',#42,'Pset_EnvironmentalImpactIndicators',$,(#231));
#544= IFCPROPERTYSINGLEVALUE('Reference',$,IFCLABEL('F2500'),$);
#545= IFCPROPERTYSET('1rJMRQYvr969YJdP4usD0m',#42,'Pset_ReinforcementBarPitchOfSlab',$,(#544));
#548= IFCPROPERTYSINGLEVALUE('ThermalTransmittance',$,IFCTHERMALTRANSMITTANCEMEASURE(0.4184),$);
#549= IFCPROPERTYSET('0IYVHn5OT1c9eU72wF5Unh',#42,'Pset_SlabCommon',$,(#231,#251,#252,#254,#548));
#552= IFCRELDEFINESBYPROPERTIES('2_Tr4qZ0z9SwpPrqBng_sD',#42,$,$,(#537),#542);
#556= IFCRELDEFINESBYPROPERTIES('3vlJoC$IH53B2CSI6$7T2k',#42,$,$,(#537),#545);
#559= IFCRELDEFINESBYPROPERTIES('3isqG$K1X54uYf1JkhakoW',#42,$,$,(#537),#549);
#562= IFCPROPERTYSET('1fnEtTt5z1SgpSomh8Ia$R',#42,'Pset_EnvironmentalImpactIndicators',$,(#231));
#564= IFCPROPERTYSINGLEVALUE('Reference',$,IFCLABEL('F2500'),$);
#565= IFCPROPERTYSET('0A67MRfHX0nwNUAYbRTrGx',#42,'Pset_ReinforcementBarPitchOfSlab',$,(#564));
#568= IFCPROPERTYSINGLEVALUE('ThermalTransmittance',$,IFCTHERMALTRANSMITTANCEMEASURE(0.4184),$);
#569= IFCPROPERTYSET('1RfJw$5hD5$A7b8sZL3$F2',#42,'Pset_SlabCommon',$,(#231,#252,#568));
#578= IFCAXIS2PLACEMENT3D(#6,$,$);
#579= IFCLOCALPLACEMENT(#134,#578);
#580= IFCCARTESIANPOINT((0.,0.));
#582= IFCAXIS2PLACEMENT2D(#580,#24);
#583= IFCRECTANGLEPROFILEDEF(.AREA.,$,#582,2499.99972839356,2499.99972839356);
#584= IFCCARTESIANPOINT((12000.0006729126,18000.000718689,2500.));
#586= IFCAXIS2PLACEMENT3D(#584,#22,#16);
#587= IFCEXTRUDEDAREASOLID(#583,#586,#20,2500.);
#588= IFCCARTESIANPOINT((10750.0008087158,16750.0008544922));
#590= IFCCARTESIANPOINT((10750.0008087158,19250.0005828857));
#592= IFCCARTESIANPOINT((13250.0005371094,19250.0005828857));
#594= IFCCARTESIANPOINT((13250.0005371094,16750.0008544922));
#596= IFCPOLYLINE((#588,#590,#592,#594,#588));
#598= IFCSTYLEDITEM(#587,(#167),$);
#601= IFCSHAPEREPRESENTATION(#105,'Body','SweptSolid',(#587));
#603= IFCSHAPEREPRESENTATION(#107,'FootPrint','Curve2D',(#596));
#605= IFCPRODUCTDEFINITIONSHAPE($,$,(#601,#603));
#609= IFCSLAB('0IYVHn5OT1c9eU5zMF5Unp',#42,'Foundation Slab:F2500:739255',$,'Foundation Slab:F2500',#579,#605,'739255',.BASESLAB.);
#612= IFCSLABTYPE('12SrOevwP43OLCUY7w2$DH',#42,'Foundation Slab:F2500',$,$,(#634,#637,#641),$,'77945',$,.BASESLAB.);
#613= IFCMATERIALLAYERSETUSAGE(#226,.AXIS3.,.POSITIVE.,0.,$);
#614= IFCPROPERTYSET('3M_0KabRP6zQ$A$CvCeWx6',#42,'Pset_EnvironmentalImpactIndicators',$,(#231));
#616= IFCPROPERTYSINGLEVALUE('Reference',$,IFCLABEL('F2500'),$);
#617= IFCPROPERTYSET('0x0Kz4IBnAahYs_76zA_Dq',#42,'Pset_ReinforcementBarPitchOfSlab',$,(#616));
#620= IFCPROPERTYSINGLEVALUE('ThermalTransmittance',$,IFCTHERMALTRANSMITTANCEMEASURE(0.4184),$);
#621= IFCPROPERTYSET('0IYVHn5OT1c9eU72wF5Unp',#42,'Pset_SlabCommon',$,(#231,#251,#252,#254,#620));
#624= IFCRELDEFINESBYPROPERTIES('013u78Qlf3awut8RjufiSL',#42,$,$,(#609),#614);
#628= IFCRELDEFINESBYPROPERTIES('1SYR70fJv2ifmhQMLBomsk',#42,$,$,(#609),#617);
#631= IFCRELDEFINESBYPROPERTIES('1$36QbX_DEfQFC_Jw63$zO',#42,$,$,(#609),#621);
#634= IFCPROPERTYSET('0CZB7i8z5AKOzcurqCQlpl',#42,'Pset_EnvironmentalImpactIndicators',$,(#231));
#636= IFCPROPERTYSINGLEVALUE('Reference',$,IFCLABEL('F2500'),$);
#637= IFCPROPERTYSET('3sBtVZ7Hj9JAL1jg26ZSI9',#42,'Pset_ReinforcementBarPitchOfSlab',$,(#636));
#640= IFCPROPERTYSINGLEVALUE('ThermalTransmittance',$,IFCTHERMALTRANSMITTANCEMEASURE(0.4184),$);
#641= IFCPROPERTYSET('1earwR$WbFKhnDQBLrz4TW',#42,'Pset_SlabCommon',$,(#231,#252,#640));
#650= IFCAXIS2PLACEMENT3D(#6,$,$);
#651= IFCLOCALPLACEMENT(#134,#650);
#652= IFCCARTESIANPOINT((0.,0.));
#654= IFCAXIS2PLACEMENT2D(#652,#24);
#655= IFCRECTANGLEPROFILEDEF(.AREA.,$,#654,14500.0005466461,8499.99977416992);
#656= IFCCARTESIANPOINT((27000.0019500732,6000.00026378632,2500.));
#658= IFCAXIS2PLACEMENT3D(#656,#22,#16);
#659= IFCEXTRUDEDAREASOLID(#655,#658,#20,2500.);
#660= IFCCARTESIANPOINT((22750.0020629883,-1250.00000953674));
#662= IFCCARTESIANPOINT((22750.0020629883,13250.0005371094));
#664= IFCCARTESIANPOINT((31250.0018371582,13250.0005371094));
#666= IFCCARTESIANPOINT((31250.0018371582,-1250.00000953674));
#668= IFCPOLYLINE((#660,#662,#664,#666,#660));
#670= IFCSTYLEDITEM(#659,(#167),$);
#673= IFCSHAPEREPRESENTATION(#105,'Body','SweptSolid',(#659));
#675= IFCSHAPEREPRESENTATION(#107,'FootPrint','Curve2D',(#668));
#677= IFCPRODUCTDEFINITIONSHAPE($,$,(#673,#675));
#681= IFCSLAB('0IYVHn5OT1c9eU5zMF5Unx',#42,'Foundation Slab:F2500:739263',$,'Foundation Slab:F2500',#651,#677,'739263',.BASESLAB.);
#684= IFCSLABTYPE('13kM$sYDPEpvCC99YUe9yO',#42,'Foundation Slab:F2500',$,$,(#706,#709,#713),$,'77945',$,.BASESLAB.);
#685= IFCMATERIALLAYERSETUSAGE(#226,.AXIS3.,.POSITIVE.,0.,$);
#686= IFCPROPERTYSET('1s2Yw3Xgv58xfVX5Rqybro',#42,'Pset_EnvironmentalImpactIndicators',$,(#231));
#688= IFCPROPERTYSINGLEVALUE('Reference',$,IFCLABEL('F2500'),$);
#689= IFCPROPERTYSET('1yyjtBnfPAhw48DQW36OgD',#42,'Pset_ReinforcementBarPitchOfSlab',$,(#688));
#692= IFCPROPERTYSINGLEVALUE('ThermalTransmittance',$,IFCTHERMALTRANSMITTANCEMEASURE(0.4184),$);
#693= IFCPROPERTYSET('0IYVHn5OT1c9eU72wF5Unx',#42,'Pset_SlabCommon',$,(#231,#251,#252,#254,#692));
#696= IFCRELDEFINESBYPROPERTIES('2CCxarZMf7fgkgCYrjDWho',#42,$,$,(#681),#686);
#700= IFCRELDEFINESBYPROPERTIES('1A3NmXv5L64OiKKgG6ZDDR',#42,$,$,(#681),#689);
#703= IFCRELDEFINESBYPROPERTIES('20tGoFGL16ZuExnHORgK4o',#42,$,$,(#681),#693);
#706= IFCPROPERTYSET('1H6s6OC0L958b_0jS0ZQkm',#42,'Pset_EnvironmentalImpactIndicators',$,(#231));
#708= IFCPROPERTYSINGLEVALUE('Reference',$,IFCLABEL('F2500'),$);
#709= IFCPROPERTYSET('210AGgIez1VPTnuZ91Mr_q',#42,'Pset_ReinforcementBarPitchOfSlab',$,(#708));
#712= IFCPROPERTYSINGLEVALUE('ThermalTransmittance',$,IFCTHERMALTRANSMITTANCEMEASURE(0.4184),$);
#713= IFCPROPERTYSET('1y3LqppG140B9AqD0eJJuS',#42,'Pset_SlabCommon',$,(#231,#252,#712));
#722= IFCAXIS2PLACEMENT3D(#6,$,$);
#723= IFCLOCALPLACEMENT(#134,#722);
#724= IFCCARTESIANPOINT((0.,0.));
#726= IFCAXIS2PLACEMENT2D(#724,#24);
#727= IFCRECTANGLEPROFILEDEF(.AREA.,$,#726,2499.99972839356,2499.99972839356);
#728= IFCCARTESIANPOINT((18000.000718689,12000.0006729126,2500.));
#730= IFCAXIS2PLACEMENT3D(#728,#22,#16);
#731= IFCEXTRUDEDAREASOLID(#727,#730,#20,2500.);
#732= IFCCARTESIANPOINT((16750.0008544922,10750.0008087158));
#734= IFCCARTESIANPOINT((16750.0008544922,13250.0005371094));
#736= IFCCARTESIANPOINT((19250.0005828857,13250.0005371094));
#738= IFCCARTESIANPOINT((19250.0005828857,10750.0008087158));
#740= IFCPOLYLINE((#732,#734,#736,#738,#732));
#742= IFCSTYLEDITEM(#731,(#167),$);
#745= IFCSHAPEREPRESENTATION(#105,'Body','SweptSolid',(#731));
#747= IFCSHAPEREPRESENTATION(#107,'FootPrint','Curve2D',(#740));
#749= IFCPRODUCTDEFINITIONSHAPE($,$,(#745,#747));
#753= IFCSLAB('0IYVHn5OT1c9eU5zMF5Um3',#42,'Foundation Slab:F2500:739271',$,'Foundation Slab:F2500',#723,#749,'739271',.BASESLAB.);
#756= IFCSLABTYPE('0PxiNPS1z6x8knDsG_fFGA',#42,'Foundation Slab:F2500',$,$,(#778,#781,#785),$,'77945',$,.BASESLAB.);
#757= IFCMATERIALLAYERSETUSAGE(#226,.AXIS3.,.POSITIVE.,0.,$);
#758= IFCPROPERTYSET('0k_HxZi1P4guHzpNlBGQCR',#42,'Pset_EnvironmentalImpactIndicators',$,(#231));
#760= IFCPROPERTYSINGLEVALUE('Reference',$,IFCLABEL('F2500'),$);
#761= IFCPROPERTYSET('159pE76xnBN9eII6UkKvPo',#42,'Pset_ReinforcementBarPitchOfSlab',$,(#760));
#764= IFCPROPERTYSINGLEVALUE('ThermalTransmittance',$,IFCTHERMALTRANSMITTANCEMEASURE(0.4184),$);
#765= IFCPROPERTYSET('0IYVHn5OT1c9eU72wF5Um3',#42,'Pset_SlabCommon',$,(#231,#251,#252,#254,#764));
#768= IFCRELDEFINESBYPROPERTIES('1M1ki6ggT7R8uzKVt1ASm$',#42,$,$,(#753),#758);
#772= IFCRELDEFINESBYPROPERTIES('0xS6WZRcD60fgWX$ymu_nr',#42,$,$,(#753),#761);
#775= IFCRELDEFINESBYPROPERTIES('0odWc8EqX8Y8O7vC12OuGu',#42,$,$,(#753),#765);
#778= IFCPROPERTYSET('18kx9Buf1BH9a63sOvi1gF',#42,'Pset_EnvironmentalImpactIndicators',$,(#231));
#780= IFCPROPERTYSINGLEVALUE('Reference',$,IFCLABEL('F2500'),$);
#781= IFCPROPERTYSET('3zlbDnb4DCvwDn$kQYqk5I',#42,'Pset_ReinforcementBarPitchOfSlab',$,(#780));
#784= IFCPROPERTYSINGLEVALUE('ThermalTransmittance',$,IFCTHERMALTRANSMITTANCEMEASURE(0.4184),$);
#785= IFCPROPERTYSET('0FCqNuQan5r8kDlcH5iAAZ',#42,'Pset_SlabCommon',$,(#231,#252,#784));
#794= IFCAXIS2PLACEMENT3D(#6,$,$);
#795= IFCLOCALPLACEMENT(#134,#794);
#796= IFCCARTESIANPOINT((0.,0.));
#798= IFCAXIS2PLACEMENT2D(#796,#24);
#799= IFCRECTANGLEPROFILEDEF(.AREA.,$,#798,2499.99972839356,2499.99972839356);
#800= IFCCARTESIANPOINT((12000.0006729126,12000.0006729126,2500.));
#802= IFCAXIS2PLACEMENT3D(#800,#22,#16);
#803= IFCEXTRUDEDAREASOLID(#799,#802,#20,2500.);
#804= IFCCARTESIANPOINT((10750.0008087158,10750.0008087158));
#806= IFCCARTESIANPOINT((10750.0008087158,13250.0005371094));
#808= IFCCARTESIANPOINT((13250.0005371094,13250.0005371094));
#810= IFCCARTESIANPOINT((13250.0005371094,10750.0008087158));
#812= IFCPOLYLINE((#804,#806,#808,#810,#804));
#814= IFCSTYLEDITEM(#803,(#167),$);
#817= IFCSHAPEREPRESENTATION(#105,'Body','SweptSolid',(#803));
#819= IFCSHAPEREPRESENTATION(#107,'FootPrint','Curve2D',(#812));
#821= IFCPRODUCTDEFINITIONSHAPE($,$,(#817,#819));
#825= IFCSLAB('0IYVHn5OT1c9eU5zMF5UmB',#42,'Foundation Slab:F2500:739279',$,'Foundation Slab:F2500',#795,#821,'739279',.BASESLAB.);
#828= IFCSLABTYPE('0y7uiw0VPEah2KeTqRoeSf',#42,'Foundation Slab:F2500',$,$,(#850,#853,#857),$,'77945',$,.BASESLAB.);
#829= IFCMATERIALLAYERSETUSAGE(#226,.AXIS3.,.POSITIVE.,0.,$);
#830= IFCPROPERTYSET('38oR5vkgDDQxr06$5zYUo5',#42,'Pset_EnvironmentalImpactIndicators',$,(#231));
#832= IFCPROPERTYSINGLEVALUE('Reference',$,IFCLABEL('F2500'),$);
#833= IFCPROPERTYSET('1FmglOjsD5KfbYy0t0TxcS',#42,'Pset_ReinforcementBarPitchOfSlab',$,(#832));
#836= IFCPROPERTYSINGLEVALUE('ThermalTransmittance',$,IFCTHERMALTRANSMITTANCEMEASURE(0.4184),$);
#837= IFCPROPERTYSET('0IYVHn5OT1c9eU72wF5UmB',#42,'Pset_SlabCommon',$,(#231,#251,#252,#254,#836));
#840= IFCRELDEFINESBYPROPERTIES('3mgixnnV5B7BP6LFjpIHHK',#42,$,$,(#825),#830);
#844= IFCRELDEFINESBYPROPERTIES('0gxDQLwpr4sx_EVHfNiKHY',#42,$,$,(#825),#833);
#847= IFCRELDEFINESBYPROPERTIES('01m_4xM6b7Xwb7yeTx9tt7',#42,$,$,(#825),#837);
#850= IFCPROPERTYSET('0CenGjp6vFzhcwPVKfIBL8',#42,'Pset_EnvironmentalImpactIndicators',$,(#231));
#852= IFCPROPERTYSINGLEVALUE('Reference',$,IFCLABEL('F2500'),$);
#853= IFCPROPERTYSET('0eUdr2e4LDIB6NCxLJ585I',#42,'Pset_ReinforcementBarPitchOfSlab',$,(#852));
#856= IFCPROPERTYSINGLEVALUE('ThermalTransmittance',$,IFCTHERMALTRANSMITTANCEMEASURE(0.4184),$);
#857= IFCPROPERTYSET('05xR0eQBr6YvErfgf4rgfY',#42,'Pset_SlabCommon',$,(#231,#252,#856));
#866= IFCAXIS2PLACEMENT3D(#6,$,$);
#867= IFCLOCALPLACEMENT(#134,#866);
#868= IFCCARTESIANPOINT((0.,0.));
#870= IFCAXIS2PLACEMENT2D(#868,#24);
#871= IFCRECTANGLEPROFILEDEF(.AREA.,$,#870,2499.99972839356,2500.00030975342);
#872= IFCCARTESIANPOINT((6000.0003364563,12000.0006729126,2500.));
#874= IFCAXIS2PLACEMENT3D(#872,#22,#16);
#875= IFCEXTRUDEDAREASOLID(#871,#874,#20,2500.);
#876= IFCCARTESIANPOINT((4750.00018157959,10750.0008087158));
#878= IFCCARTESIANPOINT((4750.00018157959,13250.0005371094));
#880= IFCCARTESIANPOINT((7250.00049133301,13250.0005371094));
#882= IFCCARTESIANPOINT((7250.00049133301,10750.0008087158));
#884= IFCPOLYLINE((#876,#878,#880,#882,#876));
#886= IFCSTYLEDITEM(#875,(#167),$);
#889= IFCSHAPEREPRESENTATION(#105,'Body','SweptSolid',(#875));
#891= IFCSHAPEREPRESENTATION(#107,'FootPrint','Curve2D',(#884));
#893= IFCPRODUCTDEFINITIONSHAPE($,$,(#889,#891));
#897= IFCSLAB('0IYVHn5OT1c9eU5zMF5UmJ',#42,'Foundation Slab:F2500:739287',$,'Foundation Slab:F2500',#867,#893,'739287',.BASESLAB.);
#900= IFCSLABTYPE('3o7KRFXZfCMQ3wEgxQ6P65',#42,'Foundation Slab:F2500',$,$,(#922,#925,#929),$,'77945',$,.BASESLAB.);
#901= IFCMATERIALLAYERSETUSAGE(#226,.AXIS3.,.POSITIVE.,0.,$);
#902= IFCPROPERTYSET('1udiSu9Xr2JBP5nETwSv2M',#42,'Pset_EnvironmentalImpactIndicators',$,(#231));
#904= IFCPROPERTYSINGLEVALUE('Reference',$,IFCLABEL('F2500'),$);
#905= IFCPROPERTYSET('06eeNxE6XCz8G_tgjbX1yv',#42,'Pset_ReinforcementBarPitchOfSlab',$,(#904));
#908= IFCPROPERTYSINGLEVALUE('ThermalTransmittance',$,IFCTHERMALTRANSMITTANCEMEASURE(0.4184),$);
#909= IFCPROPERTYSET('0IYVHn5OT1c9eU72wF5UmJ',#42,'Pset_SlabCommon',$,(#231,#251,#252,#254,#908));
#912= IFCRELDEFINESBYPROPERTIES('3LJNqJtzL9SvWWA_MSgHm8',#42,$,$,(#897),#902);
#916= IFCRELDEFINESBYPROPERTIES('3dY4DUOtD8bhjGVx8M8GvV',#42,$,$,(#897),#905);
#919= IFCRELDEFINESBYPROPERTIES('3tcjLzwmrFNebLi8Jc8IbQ',#42,$,$,(#897),#909);
#922= IFCPROPERTYSET('1r3gWCp2bD$9273aUnCIlP',#42,'Pset_EnvironmentalImpactIndicators',$,(#231));
#924= IFCPROPERTYSINGLEVALUE('Reference',$,IFCLABEL('F2500'),$);
#925= IFCPROPERTYSET('1zMq3NEUz9pOpEXlo0$6Ao',#42,'Pset_ReinforcementBarPitchOfSlab',$,(#924));
#928= IFCPROPERTYSINGLEVALUE('ThermalTransmittance',$,IFCTHERMALTRANSMITTANCEMEASURE(0.4184),$);
#929= IFCPROPERTYSET('3eBoZDmwX3G8NXvYTq5vvb',#42,'Pset_SlabCommon',$,(#231,#252,#928));
#938= IFCAXIS2PLACEMENT3D(#6,$,$);
#939= IFCLOCALPLACEMENT(#134,#938);
#940= IFCCARTESIANPOINT((0.,0.));
#942= IFCAXIS2PLACEMENT2D(#940,#24);
#943= IFCRECTANGLEPROFILEDEF(.AREA.,$,#942,2499.99972839356,2500.00001907349);
#944= IFCCARTESIANPOINT((0.,12000.0006729126,2500.));
#946= IFCAXIS2PLACEMENT3D(#944,#22,#16);
#947= IFCEXTRUDEDAREASOLID(#943,#946,#20,2500.);
#948= IFCCARTESIANPOINT((-1250.00000953674,10750.0008087158));
#950= IFCCARTESIANPOINT((-1250.00000953674,13250.0005371094));
#952= IFCCARTESIANPOINT((1250.00000953674,13250.0005371094));
#954= IFCCARTESIANPOINT((1250.00000953674,10750.0008087158));
#956= IFCPOLYLINE((#948,#950,#952,#954,#948));
#958= IFCSTYLEDITEM(#947,(#167),$);
#961= IFCSHAPEREPRESENTATION(#105,'Body','SweptSolid',(#947));
#963= IFCSHAPEREPRESENTATION(#107,'FootPrint','Curve2D',(#956));
#965= IFCPRODUCTDEFINITIONSHAPE($,$,(#961,#963));
#969= IFCSLAB('0IYVHn5OT1c9eU5zMF5UmR',#42,'Foundation Slab:F2500:739295',$,'Foundation Slab:F2500',#939,#965,'739295',.BASESLAB.);
#972= IFCSLABTYPE('1qjjIotBP0RwG_4nk8Dsd9',#42,'Foundation Slab:F2500',$,$,(#994,#997,#1001),$,'77945',$,.BASESLAB.);
#973= IFCMATERIALLAYERSETUSAGE(#226,.AXIS3.,.POSITIVE.,0.,$);
#974= IFCPROPERTYSET('3qXM1aW_DBiR0X_ZSZvxzi',#42,'Pset_EnvironmentalImpactIndicators',$,(#231));
#976= IFCPROPERTYSINGLEVALUE('Reference',$,IFCLABEL('F2500'),$);
#977= IFCPROPERTYSET('3wmIaEo8r6Uh5DADPTSTNe',#42,'Pset_ReinforcementBarPitchOfSlab',$,(#976));
#980= IFCPROPERTYSINGLEVALUE('ThermalTransmittance',$,IFCTHERMALTRANSMITTANCEMEASURE(0.4184),$);
#981= IFCPROPERTYSET('0IYVHn5OT1c9eU72wF5UmR',#42,'Pset_SlabCommon',$,(#231,#251,#252,#254,#980));
#984= IFCRELDEFINESBYPROPERTIES('345xJxm_z1QgmtEuUhsFQ0',#42,$,$,(#969),#974);
#988= IFCRELDEFINESBYPROPERTIES('3NovMpnkXFaBv0q3I8D9Nw',#42,$,$,(#969),#977);
#991= IFCRELDEFINESBYPROPERTIES('25BdJzF39AoOzsiaxeFpyV',#42,$,$,(#969),#981);
#994= IFCPROPERTYSET('2jcMjGWwz5lRodUyJ$NF37',#42,'Pset_EnvironmentalImpactIndicators',$,(#231));
#996= IFCPROPERTYSINGLEVALUE('Reference',$,IFCLABEL('F2500'),$);
#997= IFCPROPERTYSET('0xaiyKXFf34hxZXeiM8B3$',#42,'Pset_ReinforcementBarPitchOfSlab',$,(#996));
#1000= IFCPROPERTYSINGLEVALUE('ThermalTransmittance',$,IFCTHERMALTRANSMITTANCEMEASURE(0.4184),$);
#1001= IFCPROPERTYSET('2T7sOXKOzEruhRpPx76kFv',#42,'Pset_SlabCommon',$,(#231,#252,#1000));
#1010= IFCAXIS2PLACEMENT3D(#6,$,$);
#1011= IFCLOCALPLACEMENT(#134,#1010);
#1012= IFCCARTESIANPOINT((0.,0.));
#1014= IFCAXIS2PLACEMENT2D(#1012,#24);
#1015= IFCRECTANGLEPROFILEDEF(.AREA.,$,#1014,8500.00050086975,2500.00030975342);
#1016= IFCCARTESIANPOINT((6000.0003364563,3000.00024089813,2500.));
#1018= IFCAXIS2PLACEMENT3D(#1016,#22,#16);
#1019= IFCEXTRUDEDAREASOLID(#1015,#1018,#20,2500.);
#1020= IFCCARTESIANPOINT((4750.00018157959,-1250.00000953674));
#1022= IFCCARTESIANPOINT((4750.00018157959,7250.00049133301));
#1024= IFCCARTESIANPOINT((7250.00049133301,7250.00049133301));
#1026= IFCCARTESIANPOINT((7250.00049133301,-1250.00000953674));
#1028= IFCPOLYLINE((#1020,#1022,#1024,#1026,#1020));
#1030= IFCSTYLEDITEM(#1019,(#167),$);
#1033= IFCSHAPEREPRESENTATION(#105,'Body','SweptSolid',(#1019));
#1035= IFCSHAPEREPRESENTATION(#107,'FootPrint','Curve2D',(#1028));
#1037= IFCPRODUCTDEFINITIONSHAPE($,$,(#1033,#1035));
#1041= IFCSLAB('0IYVHn5OT1c9eU5zMF5UmZ',#42,'Foundation Slab:F2500:739303',$,'Foundation Slab:F2500',#1011,#1037,'739303',.BASESLAB.);
#1044= IFCSLABTYPE('3ZQtVlkwj5GR3hSJEZDPKr',#42,'Foundation Slab:F2500',$,$,(#1066,#1069,#1073),$,'77945',$,.BASESLAB.);
#1045= IFCMATERIALLAYERSETUSAGE(#226,.AXIS3.,.POSITIVE.,0.,$);
#1046= IFCPROPERTYSET('1SKKVI$DzCd8y18Snu$Hq_',#42,'Pset_EnvironmentalImpactIndicators',$,(#231));
#1048= IFCPROPERTYSINGLEVALUE('Reference',$,IFCLABEL('F2500'),$);
#1049= IFCPROPERTYSET('2IqR4WF2T9Ih5hS_avyRBT',#42,'Pset_ReinforcementBarPitchOfSlab',$,(#1048));
#1052= IFCPROPERTYSINGLEVALUE('ThermalTransmittance',$,IFCTHERMALTRANSMITTANCEMEASURE(0.4184),$);
#1053= IFCPROPERTYSET('0IYVHn5OT1c9eU72wF5UmZ',#42,'Pset_SlabCommon',$,(#231,#251,#252,#254,#1052));
#1056= IFCRELDEFINESBYPROPERTIES('1XjZ$0CdP02h_GdNcbHerr',#42,$,$,(#1041),#1046);
#1060= IFCRELDEFINESBYPROPERTIES('3j7Bs1zEvCGfYcu9uYuRW4',#42,$,$,(#1041),#1049);
#1063= IFCRELDEFINESBYPROPERTIES('3fz9dALpf0hPUWie8aCvQt',#42,$,$,(#1041),#1053);
#1066= IFCPROPERTYSET('2yo5wKrVT0qPznGd_kgl8v',#42,'Pset_EnvironmentalImpactIndicators',$,(#231));
#1068= IFCPROPERTYSINGLEVALUE('Reference',$,IFCLABEL('F2500'),$);
#1069= IFCPROPERTYSET('0i9uVk$g11OecMwJGo36A1',#42,'Pset_ReinforcementBarPitchOfSlab',$,(#1068));
#1072= IFCPROPERTYSINGLEVALUE('ThermalTransmittance',$,IFCTHERMALTRANSMITTANCEMEASURE(0.4184),$);
#1073= IFCPROPERTYSET('2qSKXRlSj7NvOKyivLZoBT',#42,'Pset_SlabCommon',$,(#231,#252,#1072));
#1082= IFCAXIS2PLACEMENT3D(#6,$,$);
#1083= IFCLOCALPLACEMENT(#134,#1082);
#1084= IFCCARTESIANPOINT((0.,0.));
#1086= IFCAXIS2PLACEMENT2D(#1084,#24);
#1087= IFCRECTANGLEPROFILEDEF(.AREA.,$,#1086,8500.00050086975,2500.00001907349);
#1088= IFCCARTESIANPOINT((0.,3000.00024089813,2500.));
#1090= IFCAXIS2PLACEMENT3D(#1088,#22,#16);
#1091= IFCEXTRUDEDAREASOLID(#1087,#1090,#20,2500.);
#1092= IFCCARTESIANPOINT((-1250.00000953674,-1250.00000953674));
#1094= IFCCARTESIANPOINT((-1250.00000953674,7250.00049133301));
#1096= IFCCARTESIANPOINT((1250.00000953674,7250.00049133301));
#1098= IFCCARTESIANPOINT((1250.00000953674,-1250.00000953674));
#1100= IFCPOLYLINE((#1092,#1094,#1096,#1098,#1092));
#1102= IFCSTYLEDITEM(#1091,(#167),$);
#1105= IFCSHAPEREPRESENTATION(#105,'Body','SweptSolid',(#1091));
#1107= IFCSHAPEREPRESENTATION(#107,'FootPrint','Curve2D',(#1100));
#1109= IFCPRODUCTDEFINITIONSHAPE($,$,(#1105,#1107));
#1113= IFCSLAB('0IYVHn5OT1c9eU5zMF5Umh',#42,'Foundation Slab:F2500:739311',$,'Foundation Slab:F2500',#1083,#1109,'739311',.BASESLAB.);
#1116= IFCSLABTYPE('0AupG_V2L5QhWdzjfSxhuu',#42,'Foundation Slab:F2500',$,$,(#1138,#1141,#1145),$,'77945',$,.BASESLAB.);
#1117= IFCMATERIALLAYERSETUSAGE(#226,.AXIS3.,.POSITIVE.,0.,$);
#1118= IFCPROPERTYSET('3DbJBHyZ1BkRQB5D4Cgr_f',#42,'Pset_EnvironmentalImpactIndicators',$,(#231));
#1120= IFCPROPERTYSINGLEVALUE('Reference',$,IFCLABEL('F2500'),$);
#1121= IFCPROPERTYSET('1t1VaZ119BLxs_123jzkKO',#42,'Pset_ReinforcementBarPitchOfSlab',$,(#1120));
#1124= IFCPROPERTYSINGLEVALUE('ThermalTransmittance',$,IFCTHERMALTRANSMITTANCEMEASURE(0.4184),$);
#1125= IFCPROPERTYSET('0IYVHn5OT1c9eU72wF5Umh',#42,'Pset_SlabCommon',$,(#231,#251,#252,#254,#1124));
#1128= IFCRELDEFINESBYPROPERTIES('0idrz3zen008EVN0T$nXao',#42,$,$,(#1113),#1118);
#1132= IFCRELDEFINESBYPROPERTIES('3bOlo74wzBAPq6bdQusVz1',#42,$,$,(#1113),#1121);
#1135= IFCRELDEFINESBYPROPERTIES('0joUdYJf9BzfQxpKSO1k_r',#42,$,$,(#1113),#1125);
#1138= IFCPROPERTYSET('309Fgy_Ob7du4X2P9iBC5M',#42,'Pset_EnvironmentalImpactIndicators',$,(#231));
#1140= IFCPROPERTYSINGLEVALUE('Reference',$,IFCLABEL('F2500'),$);
#1141= IFCPROPERTYSET('0MH4oW4SbAn9JOGEFhmV8J',#42,'Pset_ReinforcementBarPitchOfSlab',$,(#1140));
#1144= IFCPROPERTYSINGLEVALUE('ThermalTransmittance',$,IFCTHERMALTRANSMITTANCEMEASURE(0.4184),$);
#1145= IFCPROPERTYSET('2kEdjuSz93gOiGe350bVK_',#42,'Pset_SlabCommon',$,(#231,#252,#1144));
#1154= IFCAXIS2PLACEMENT3D(#6,$,$);
#1155= IFCLOCALPLACEMENT(#134,#1154);
#1156= IFCCARTESIANPOINT((0.,0.));
#1158= IFCAXIS2PLACEMENT2D(#1156,#24);
#1159= IFCRECTANGLEPROFILEDEF(.AREA.,$,#1158,2500.00030975342,2499.99972839356);
#1160= IFCCARTESIANPOINT((18000.000718689,6000.0003364563,2500.));
#1162= IFCAXIS2PLACEMENT3D(#1160,#22,#16);
#1163= IFCEXTRUDEDAREASOLID(#1159,#1162,#20,2500.);
#1164= IFCCARTESIANPOINT((16750.0008544922,4750.00018157959));
#1166= IFCCARTESIANPOINT((16750.0008544922,7250.00049133301));
#1168= IFCCARTESIANPOINT((19250.0005828857,7250.00049133301));
#1170= IFCCARTESIANPOINT((19250.0005828857,4750.00018157959));
#1172= IFCPOLYLINE((#1164,#1166,#1168,#1170,#1164));
#1174= IFCSTYLEDITEM(#1163,(#167),$);
#1177= IFCSHAPEREPRESENTATION(#105,'Body','SweptSolid',(#1163));
#1179= IFCSHAPEREPRESENTATION(#107,'FootPrint','Curve2D',(#1172));
#1181= IFCPRODUCTDEFINITIONSHAPE($,$,(#1177,#1179));
#1185= IFCSLAB('0IYVHn5OT1c9eU5zMF5Ump',#42,'Foundation Slab:F2500:739319',$,'Foundation Slab:F2500',#1155,#1181,'739319',.BASESLAB.);
#1188= IFCSLABTYPE('1Eii0Mbuz5V8Ad8NIPTwPW',#42,'Foundation Slab:F2500',$,$,(#1210,#1213,#1217),$,'77945',$,.BASESLAB.);
#1189= IFCMATERIALLAYERSETUSAGE(#226,.AXIS3.,.POSITIVE.,0.,$);
#1190= IFCPROPERTYSET('2oQ6n_STvBOQ4RO8j6oHmd',#42,'Pset_EnvironmentalImpactIndicators',$,(#231));
#1192= IFCPROPERTYSINGLEVALUE('Reference',$,IFCLABEL('F2500'),$);
#1193= IFCPROPERTYSET('2GOBorVn98URCEOn_YXW79',#42,'Pset_ReinforcementBarPitchOfSlab',$,(#1192));
#1196= IFCPROPERTYSINGLEVALUE('ThermalTransmittance',$,IFCTHERMALTRANSMITTANCEMEASURE(0.4184),$);
#1197= IFCPROPERTYSET('0IYVHn5OT1c9eU72wF5Ump',#42,'Pset_SlabCommon',$,(#231,#251,#252,#254,#1196));
#1200= IFCRELDEFINESBYPROPERTIES('16WWunjh97xQUFUBEu9y4M',#42,$,$,(#1185),#1190);
#1204= IFCRELDEFINESBYPROPERTIES('0jOHtKg1D9jQKElNTooJsY',#42,$,$,(#1185),#1193);
#1207= IFCRELDEFINESBYPROPERTIES('0uFqGJYff6FRauMBEmr4S5',#42,$,$,(#1185),#1197);
#1210= IFCPROPERTYSET('3_tLngfrDCo8eLuE5GgVhU',#42,'Pset_EnvironmentalImpactIndicators',$,(#231));
#1212= IFCPROPERTYSINGLEVALUE('Reference',$,IFCLABEL('F2500'),$);
#1213= IFCPROPERTYSET('0OMhcYJB53aep9yRVHsu5g',#42,'Pset_ReinforcementBarPitchOfSlab',$,(#1212));
#1216= IFCPROPERTYSINGLEVALUE('ThermalTransmittance',$,IFCTHERMALTRANSMITTANCEMEASURE(0.4184),$);
#1217= IFCPROPERTYSET('0Ye1BlqG50YevduKRzz59B',#42,'Pset_SlabCommon',$,(#231,#252,#1216));
#1226= IFCAXIS2PLACEMENT3D(#6,$,$);
#1227= IFCLOCALPLACEMENT(#134,#1226);
#1228= IFCCARTESIANPOINT((0.,0.));
#1230= IFCAXIS2PLACEMENT2D(#1228,#24);
#1231= IFCRECTANGLEPROFILEDEF(.AREA.,$,#1230,2500.00030975342,2499.99972839356);
#1232= IFCCARTESIANPOINT((12000.0006729126,6000.0003364563,2500.));
#1234= IFCAXIS2PLACEMENT3D(#1232,#22,#16);
#1235= IFCEXTRUDEDAREASOLID(#1231,#1234,#20,2500.);
#1236= IFCCARTESIANPOINT((10750.0008087158,4750.00018157959));
#1238= IFCCARTESIANPOINT((10750.0008087158,7250.00049133301));
#1240= IFCCARTESIANPOINT((13250.0005371094,7250.00049133301));
#1242= IFCCARTESIANPOINT((13250.0005371094,4750.00018157959));
#1244= IFCPOLYLINE((#1236,#1238,#1240,#1242,#1236));
#1246= IFCSTYLEDITEM(#1235,(#167),$);
#1249= IFCSHAPEREPRESENTATION(#105,'Body','SweptSolid',(#1235));
#1251= IFCSHAPEREPRESENTATION(#107,'FootPrint','Curve2D',(#1244));
#1253= IFCPRODUCTDEFINITIONSHAPE($,$,(#1249,#1251));
#1257= IFCSLAB('0IYVHn5OT1c9eU5zMF5Umx',#42,'Foundation Slab:F2500:739327',$,'Foundation Slab:F2500',#1227,#1253,'739327',.BASESLAB.);
#1260= IFCSLABTYPE('27f$rdQrD5$hSTam6VA9v1',#42,'Foundation Slab:F2500',$,$,(#1282,#1285,#1289),$,'77945',$,.BASESLAB.);
#1261= IFCMATERIALLAYERSETUSAGE(#226,.AXIS3.,.POSITIVE.,0.,$);
#1262= IFCPROPERTYSET('3c1wH38Bj6Qx7wIu3D0dFl',#42,'Pset_EnvironmentalImpactIndicators',$,(#231));
#1264= IFCPROPERTYSINGLEVALUE('Reference',$,IFCLABEL('F2500'),$);
#1265= IFCPROPERTYSET('2OhK5ScDL1MPYMyurRihXT',#42,'Pset_ReinforcementBarPitchOfSlab',$,(#1264));
#1268= IFCPROPERTYSINGLEVALUE('ThermalTransmittance',$,IFCTHERMALTRANSMITTANCEMEASURE(0.4184),$);
#1269= IFCPROPERTYSET('0IYVHn5OT1c9eU72wF5Umx',#42,'Pset_SlabCommon',$,(#231,#251,#252,#254,#1268));
#1272= IFCRELDEFINESBYPROPERTIES('290oFUpNvBAf48iCKi_K5I',#42,$,$,(#1257),#1262);
#1276= IFCRELDEFINESBYPROPERTIES('1uPA82n4rBghVSZLDzV2Ws',#42,$,$,(#1257),#1265);
#1279= IFCRELDEFINESBYPROPERTIES('1UEwNeKOX6jR6XuYYhwKaK',#42,$,$,(#1257),#1269);
#1282= IFCPROPERTYSET('1EBo6b1lT0KBDFqOhr6D$o',#42,'Pset_EnvironmentalImpactIndicators',$,(#231));
#1284= IFCPROPERTYSINGLEVALUE('Reference',$,IFCLABEL('F2500'),$);
#1285= IFCPROPERTYSET('0UnIIcMtHD9B3uTW9pEqoO',#42,'Pset_ReinforcementBarPitchOfSlab',$,(#1284));
#1288= IFCPROPERTYSINGLEVALUE('ThermalTransmittance',$,IFCTHERMALTRANSMITTANCEMEASURE(0.4184),$);
#1289= IFCPROPERTYSET('22K3Ggb55FhetP2g4Pqy6u',#42,'Pset_SlabCommon',$,(#231,#252,#1288));
#1298= IFCAXIS2PLACEMENT3D(#6,$,$);
#1299= IFCLOCALPLACEMENT(#134,#1298);
#1300= IFCCARTESIANPOINT((0.,0.));
#1302= IFCAXIS2PLACEMENT2D(#1300,#24);
#1303= IFCRECTANGLEPROFILEDEF(.AREA.,$,#1302,2500.00001907349,2499.99972839356);
#1304= IFCCARTESIANPOINT((12000.0006729126,0.,2500.));
#1306= IFCAXIS2PLACEMENT3D(#1304,#22,#16);
#1307= IFCEXTRUDEDAREASOLID(#1303,#1306,#20,2500.);
#1308= IFCCARTESIANPOINT((10750.0008087158,-1250.00000953674));
#1310= IFCCARTESIANPOINT((10750.0008087158,1250.00000953674));
#1312= IFCCARTESIANPOINT((13250.0005371094,1250.00000953674));
#1314= IFCCARTESIANPOINT((13250.0005371094,-1250.00000953674));
#1316= IFCPOLYLINE((#1308,#1310,#1312,#1314,#1308));
#1318= IFCSTYLEDITEM(#1307,(#167),$);
#1321= IFCSHAPEREPRESENTATION(#105,'Body','SweptSolid',(#1307));
#1323= IFCSHAPEREPRESENTATION(#107,'FootPrint','Curve2D',(#1316));
#1325= IFCPRODUCTDEFINITIONSHAPE($,$,(#1321,#1323));
#1329= IFCSLAB('0IYVHn5OT1c9eU5zMF5UF3',#42,'Foundation Slab:F2500:739335',$,'Foundation Slab:F2500',#1299,#1325,'739335',.BASESLAB.);
#1332= IFCSLABTYPE('1q7eo88wT0yQuouXLixbDb',#42,'Foundation Slab:F2500',$,$,(#1354,#1357,#1361),$,'77945',$,.BASESLAB.);
#1333= IFCMATERIALLAYERSETUSAGE(#226,.AXIS3.,.POSITIVE.,0.,$);
#1334= IFCPROPERTYSET('2UCFPV2353KRvoJRdsjsCr',#42,'Pset_EnvironmentalImpactIndicators',$,(#231));
#1336= IFCPROPERTYSINGLEVALUE('Reference',$,IFCLABEL('F2500'),$);
#1337= IFCPROPERTYSET('1uRktPCUbEGwjYE_cH1t6k',#42,'Pset_ReinforcementBarPitchOfSlab',$,(#1336));
#1340= IFCPROPERTYSINGLEVALUE('ThermalTransmittance',$,IFCTHERMALTRANSMITTANCEMEASURE(0.4184),$);
#1341= IFCPROPERTYSET('0IYVHn5OT1c9eU72wF5UF3',#42,'Pset_SlabCommon',$,(#231,#251,#252,#254,#1340));
#1344= IFCRELDEFINESBYPROPERTIES('15r4HmtvjAM8hNmjtkohJl',#42,$,$,(#1329),#1334);
#1348= IFCRELDEFINESBYPROPERTIES('1tKF_kZUr1kQF7pv$qcZhu',#42,$,$,(#1329),#1337);
#1351= IFCRELDEFINESBYPROPERTIES('2_ow2BYmvD79tn_6UMw$4I',#42,$,$,(#1329),#1341);
#1354= IFCPROPERTYSET('2LBT_c2$f7LOMsSI7Nci5R',#42,'Pset_EnvironmentalImpactIndicators',$,(#231));
#1356= IFCPROPERTYSINGLEVALUE('Reference',$,IFCLABEL('F2500'),$);
#1357= IFCPROPERTYSET('3x8gS7Tp1CB9JiNhjoVElQ',#42,'Pset_ReinforcementBarPitchOfSlab',$,(#1356));
#1360= IFCPROPERTYSINGLEVALUE('ThermalTransmittance',$,IFCTHERMALTRANSMITTANCEMEASURE(0.4184),$);
#1361= IFCPROPERTYSET('3or5e_O6fBAv4$DmP8CF84',#42,'Pset_SlabCommon',$,(#231,#252,#1360));
#1370= IFCAXIS2PLACEMENT3D(#6,$,$);
#1371= IFCLOCALPLACEMENT(#134,#1370);
#1372= IFCCARTESIANPOINT((0.,0.));
#1374= IFCAXIS2PLACEMENT2D(#1372,#24);
#1375= IFCRECTANGLEPROFILEDEF(.AREA.,$,#1374,2500.00001907349,2499.99972839356);
#1376= IFCCARTESIANPOINT((18000.000718689,0.,2500.));
#1378= IFCAXIS2PLACEMENT3D(#1376,#22,#16);
#1379= IFCEXTRUDEDAREASOLID(#1375,#1378,#20,2500.);
#1380= IFCCARTESIANPOINT((16750.0008544922,-1250.00000953674));
#1382= IFCCARTESIANPOINT((16750.0008544922,1250.00000953674));
#1384= IFCCARTESIANPOINT((19250.0005828857,1250.00000953674));
#1386= IFCCARTESIANPOINT((19250.0005828857,-1250.00000953674));
#1388= IFCPOLYLINE((#1380,#1382,#1384,#1386,#1380));
#1390= IFCSTYLEDITEM(#1379,(#167),$);
#1393= IFCSHAPEREPRESENTATION(#105,'Body','SweptSolid',(#1379));
#1395= IFCSHAPEREPRESENTATION(#107,'FootPrint','Curve2D',(#1388));
#1397= IFCPRODUCTDEFINITIONSHAPE($,$,(#1393,#1395));
#1401= IFCSLAB('0IYVHn5OT1c9eU5zMF5UFB',#42,'Foundation Slab:F2500:739343',$,'Foundation Slab:F2500',#1371,#1397,'739343',.BASESLAB.);
#1404= IFCSLABTYPE('3Xve9pLeXECQo3Cw_Wb0Zx',#42,'Foundation Slab:F2500',$,$,(#1426,#1429,#1433),$,'77945',$,.BASESLAB.);
#1405= IFCMATERIALLAYERSETUSAGE(#226,.AXIS3.,.POSITIVE.,0.,$);
#1406= IFCPROPERTYSET('2RG1aXKKjB3Pr6Hfgx2375',#42,'Pset_EnvironmentalImpactIndicators',$,(#231));
#1408= IFCPROPERTYSINGLEVALUE('Reference',$,IFCLABEL('F2500'),$);
#1409= IFCPROPERTYSET('0tHrs_$ePAXAi$$hEE57bX',#42,'Pset_ReinforcementBarPitchOfSlab',$,(#1408));
#1412= IFCPROPERTYSINGLEVALUE('ThermalTransmittance',$,IFCTHERMALTRANSMITTANCEMEASURE(0.4184),$);
#1413= IFCPROPERTYSET('0IYVHn5OT1c9eU72wF5UFB',#42,'Pset_SlabCommon',$,(#231,#251,#252,#254,#1412));
#1416= IFCRELDEFINESBYPROPERTIES('36v39b$q9AOf4uIuk8coDh',#42,$,$,(#1401),#1406);
#1420= IFCRELDEFINESBYPROPERTIES('30zLi0S6rAXgRpVyqUzgdV',#42,$,$,(#1401),#1409);
#1423= IFCRELDEFINESBYPROPERTIES('3U8elfi79FQRNaGe$Unz9R',#42,$,$,(#1401),#1413);
#1426= IFCPROPERTYSET('05EdK9HlL4lfQd$By4lWLc',#42,'Pset_EnvironmentalImpactIndicators',$,(#231));
#1428= IFCPROPERTYSINGLEVALUE('Reference',$,IFCLABEL('F2500'),$);
#1429= IFCPROPERTYSET('1pIpoeYc51gQpFfLWoKvlg',#42,'Pset_ReinforcementBarPitchOfSlab',$,(#1428));
#1432= IFCPROPERTYSINGLEVALUE('ThermalTransmittance',$,IFCTHERMALTRANSMITTANCEMEASURE(0.4184),$);
#1433= IFCPROPERTYSET('2rth7UWUb2UvWiRZLrzVll',#42,'Pset_SlabCommon',$,(#231,#252,#1432));
#1440= IFCAXIS2PLACEMENT3D(#6,$,$);
#1441= IFCLOCALPLACEMENT($,#1440);
#1442= IFCPOSTALADDRESS($,$,$,$,('\X2\8BF757286B6459048F93516557305740\X0\'),$,'','','','\X2\53174EACFF0C4E2D56FD\X0\');
#1444= IFCSITE('0wAXF_DFbFHRYsPWD44M9j',#42,'Default',$,$,#1441,$,$,.ELEMENT.,(39,55,0,114440),(116,25,59,866333),0.,$,$);
#1449= IFCPROPERTYSINGLEVALUE('Reference',$,IFCIDENTIFIER('\X2\4E0A68075934\X0\'),$);
#1450= IFCPROPERTYSINGLEVALUE('AboveGround',$,IFCLOGICAL(.U.),$);
#1451= IFCPROPERTYSET('3Jgg067xr6vBL4VSo9YMYR',#42,'Pset_BuildingStoreyCommon',$,(#1449,#1450));
#1455= IFCRELDEFINESBYPROPERTIES('3FvXYczer4EvuOIrz6N1nM',#42,$,$,(#136),#1451);
#1459= IFCRELCONTAINEDINSPATIALSTRUCTURE('3Jgg067xr6vBL4TY69YMYR',#42,$,$,(#188,#321,#393,#465,#537,#609,#681,#753,#825,#897,#969,#1041,#1113,#1185,#1257,#1329,#1401),#136);
#1479= IFCRELAGGREGATES('2yZxX$XnP0UQH5SRsHDKKB',#42,$,$,#108,(#1444));
#1483= IFCRELAGGREGATES('2MqQXBPAPErPdTVuvnmLqT',#42,$,$,#1444,(#123));
#1487= IFCRELAGGREGATES('3mQBaTfuH9QBHDcYQBQvNl',#42,$,$,#123,(#136));
#1491= IFCPROPERTYSINGLEVALUE('Reference',$,IFCIDENTIFIER('Project Information'),$);
#1492= IFCPROPERTYSINGLEVALUE('NumberOfStoreys',$,IFCINTEGER(1),$);
#1493= IFCPROPERTYSINGLEVALUE('IsLandmarked',$,IFCLOGICAL(.U.),$);
#1494= IFCPROPERTYSET('3mQBaTfuH9QBHDaSwBQvNl',#42,'Pset_BuildingCommon',$,(#1491,#1492,#1493));
#1499= IFCRELDEFINESBYPROPERTIES('2MYOyLVOLCA8A9DIVGN4HO',#42,$,$,(#123),#1494);
#1503= IFCRELASSOCIATESMATERIAL('16bTdfKDXCCeGaioofWipD',#42,$,$,(#188),#229);
#1507= IFCRELASSOCIATESMATERIAL('2YWxTFfkrCCOmVEIwVQAgQ',#42,$,$,(#321),#325);
#1511= IFCRELASSOCIATESMATERIAL('1pYuTtbEn8twiQc$LsLMDt',#42,$,$,(#393),#397);
#1515= IFCRELASSOCIATESMATERIAL('18yF_DW$v9mvKVjgPSpbh_',#42,$,$,(#465),#469);
#1519= IFCRELASSOCIATESMATERIAL('21JivPYlH668tGkv4bMjX_',#42,$,$,(#537),#541);
#1523= IFCRELASSOCIATESMATERIAL('2CFmUswxj6SAlwrmYZjEmE',#42,$,$,(#609),#613);
#1527= IFCRELASSOCIATESMATERIAL('0eoDefYi57lgln$T_r85j0',#42,$,$,(#681),#685);
#1531= IFCRELASSOCIATESMATERIAL('3wDrfwDrD7gxPOT0xZeEjx',#42,$,$,(#753),#757);
#1535= IFCRELASSOCIATESMATERIAL('34Ohxgo85EfuNeDQgJVFJp',#42,$,$,(#825),#829);
#1539= IFCRELASSOCIATESMATERIAL('3X411_QQPB9g87MfWIWO5X',#42,$,$,(#897),#901);
#1543= IFCRELASSOCIATESMATERIAL('25UR5rj_v6tORGE8kkUOjo',#42,$,$,(#969),#973);
#1547= IFCRELASSOCIATESMATERIAL('3681t8l0X92vJxdpNs2i9e',#42,$,$,(#1041),#1045);
#1551= IFCRELASSOCIATESMATERIAL('0WI0w0ZgnCOvD7yV_ua4G1',#42,$,$,(#1113),#1117);
#1555= IFCRELASSOCIATESMATERIAL('34vbIqiFT45Rhu0f$Mln$d',#42,$,$,(#1185),#1189);
#1559= IFCRELASSOCIATESMATERIAL('3qz_7lwQz2hQ115Hlm_Xlh',#42,$,$,(#1257),#1261);
#1563= IFCRELASSOCIATESMATERIAL('14l0LsoBrBagyZ0J9l9hlj',#42,$,$,(#1329),#1333);
#1567= IFCRELASSOCIATESMATERIAL('0RQxL67TzE6hktsUBRJ5kh',#42,$,$,(#1401),#1405);
#1571= IFCRELASSOCIATESMATERIAL('2eiKN5t6P4OQ52eaQRcGel',#42,$,$,(#203,#324,#396,#468,#540,#612,#684,#756,#828,#900,#972,#1044,#1116,#1188,#1260,#1332,#1404),#226);
#1591= IFCRELDEFINESBYTYPE('3j8_i1r6vA9BumtBxREB$k',#42,$,$,(#188),#203);
#1595= IFCRELDEFINESBYTYPE('1KBe41dWnDJ94EhukJCfhh',#42,$,$,(#321),#324);
#1599= IFCRELDEFINESBYTYPE('2QP6zlvQjAbxVN0LzSP8U9',#42,$,$,(#393),#396);
#1603= IFCRELDEFINESBYTYPE('28U9fdhF57yh56F7CZfVH2',#42,$,$,(#465),#468);
#1607= IFCRELDEFINESBYTYPE('1See6Ob0v4w8bP6JIGwLPY',#42,$,$,(#537),#540);
#1611= IFCRELDEFINESBYTYPE('0vxB3BDsL1q8FEK8CNrA7v',#42,$,$,(#609),#612);
#1615= IFCRELDEFINESBYTYPE('2iRBNo6HDA398Z_KWhb1OY',#42,$,$,(#681),#684);
#1619= IFCRELDEFINESBYTYPE('0hLRBviwPA1xIpm5OeSeAf',#42,$,$,(#753),#756);
#1623= IFCRELDEFINESBYTYPE('3OJBIIREH8UfkQhTw6yUUa',#42,$,$,(#825),#828);
#1627= IFCRELDEFINESBYTYPE('1hI7_RUJn2TQC_MuIei6h5',#42,$,$,(#897),#900);
#1631= IFCRELDEFINESBYTYPE('1v5H62mHvACfY_27$4_dTh',#42,$,$,(#969),#972);
#1635= IFCRELDEFINESBYTYPE('31FtbF$sLA1f0tvSPkVDgL',#42,$,$,(#1041),#1044);
#1639= IFCRELDEFINESBYTYPE('2$i$ItJ795_gbhd38vIgYH',#42,$,$,(#1113),#1116);
#1643= IFCRELDEFINESBYTYPE('3OE0MHG_X0weCPGkHirMu6',#42,$,$,(#1185),#1188);
#1647= IFCRELDEFINESBYTYPE('3pfqMOSgv9vBUgKp$wOdFf',#42,$,$,(#1257),#1260);
#1651= IFCRELDEFINESBYTYPE('0CGl9FPI927RfqiDuf$X5C',#42,$,$,(#1329),#1332);
#1655= IFCRELDEFINESBYTYPE('0iwQ7$LCb0uvOms9LjF1yO',#42,$,$,(#1401),#1404);
#1659= IFCPRESENTATIONLAYERASSIGNMENT('S-FNDN-____-OTLN',$,(#172,#313,#385,#457,#529,#601,#673,#745,#817,#889,#961,#1033,#1105,#1177,#1249,#1321,#1393),$);
ENDSEC;

END-ISO-10303-21;
